HIERARCHY
ROOT Hips
{
	OFFSET 0.000000 0.000000 0.000000
	CHANNELS 6 Xposition Yposition Zposition Yrotation Xrotation Zrotation
	JOINT Chest
	{
		OFFSET 0.000000 -0.009281 11.569106
		CHANNELS 3 Yrotation Xrotation Zrotation
		JOINT Chest2
		{
			OFFSET -0.000000 0.016865 9.269641
			CHANNELS 3 Yrotation Xrotation Zrotation
			JOINT Chest3
			{
				OFFSET -0.000000 0.000001 8.374491
				CHANNELS 3 Yrotation Xrotation Zrotation
				JOINT Chest4
				{
					OFFSET -0.000000 0.000001 8.374493
					CHANNELS 3 Yrotation Xrotation Zrotation
					JOINT Neck
					{
						OFFSET -0.000000 0.000002 12.152554
						CHANNELS 3 Yrotation Xrotation Zrotation
						JOINT Head
						{
							OFFSET -0.000000 0.040101 7.802319
							CHANNELS 3 Yrotation Xrotation Zrotation
							End Site
							{
								OFFSET -0.000000 0.020947 14.853096
							}
						}
					}
					JOINT RightCollar
					{
						OFFSET 2.894404 0.000001 6.791374
						CHANNELS 3 Yrotation Xrotation Zrotation
						JOINT RightShoulder
						{
							OFFSET 13.574684 0.000001 0.000000
							CHANNELS 3 Yrotation Xrotation Zrotation
							JOINT RightElbow
							{
								OFFSET 23.923903 0.000002 0.000000
								CHANNELS 3 Yrotation Xrotation Zrotation
								JOINT RightWrist
								{
									OFFSET 19.846718 0.012767 0.000000
									CHANNELS 3 Yrotation Xrotation Zrotation
									End Site
									{
										OFFSET 14.973145 0.000001 0.000000
									}
								}
							}
						}
					}
					JOINT LeftCollar
					{
						OFFSET -2.894404 0.000001 6.791374
						CHANNELS 3 Yrotation Xrotation Zrotation
						JOINT LeftShoulder
						{
							OFFSET -13.574684 -0.000001 0.000000
							CHANNELS 3 Yrotation Xrotation Zrotation
							JOINT LeftElbow
							{
								OFFSET -23.923903 -0.000002 0.000000
								CHANNELS 3 Yrotation Xrotation Zrotation
								JOINT LeftWrist
								{
									OFFSET -19.846718 0.012763 0.000000
									CHANNELS 3 Yrotation Xrotation Zrotation
									End Site
									{
										OFFSET -14.973145 -0.000001 0.000000
									}
								}
							}
						}
					}
				}
			}
		}
	}
	JOINT RightHip
	{
		OFFSET 9.469263 0.004643 0.045487
		CHANNELS 3 Yrotation Xrotation Zrotation
		JOINT RightKnee
		{
			OFFSET 0.000000 0.002661 -40.478676
			CHANNELS 3 Yrotation Xrotation Zrotation
			JOINT RightAnkle
			{
				OFFSET 0.000000 0.049106 -35.224068
				CHANNELS 3 Yrotation Xrotation Zrotation
				JOINT RightToe
				{
					OFFSET -0.000001 12.539529 -6.151390
					CHANNELS 3 Yrotation Xrotation Zrotation
					End Site
					{
						OFFSET -0.000001 5.044994 -1.291870
					}
				}
			}
		}
	}
	JOINT LeftHip
	{
		OFFSET -9.469263 0.004641 0.045487
		CHANNELS 3 Yrotation Xrotation Zrotation
		JOINT LeftKnee
		{
			OFFSET 0.000000 0.002661 -40.478676
			CHANNELS 3 Yrotation Xrotation Zrotation
			JOINT LeftAnkle
			{
				OFFSET 0.000000 0.049106 -35.224068
				CHANNELS 3 Yrotation Xrotation Zrotation
				JOINT LeftToe
				{
					OFFSET -0.000001 12.539529 -6.151390
					CHANNELS 3 Yrotation Xrotation Zrotation
					End Site
					{
						OFFSET -0.000001 5.044994 -1.291870
					}
				}
			}
		}
	}
}
MOTION
Frames: 11
Frame Time: 0.016667
10.248186 3.314442 83.172859 -6.269360 -7.283546 -123.571072 -6.484600 3.221291 -0.632295 -2.877043 1.448979 -0.080901 -2.877042 1.448979 -0.080901 -2.157477 1.087143 -0.053852 -0.938121 -21.123023 -12.781710 -5.276808 -4.123535 -23.442917 -6.008867 15.763493 -7.583918 25.096195 18.239375 55.827323 -17.214491 -13.328242 10.870471 26.824053 -21.494896 -26.823054 -6.555996 -17.317043 -17.312185 -49.507981 -21.116249 -69.445709 -8.650418 -20.035662 -42.983617 -38.902924 -27.029497 35.373488 3.886780 -9.040794 1.528352 -0.727383 -5.389430 2.869968 2.859722 4.731510 6.158181 -0.101300 -0.125228 -0.015594 3.054691 -14.612334 5.507417 0.555389 -1.103322 4.818085 -0.670736 6.606414 4.275646 0.107661 0.167570 -0.002095 
10.213783 3.310040 83.176697 -6.263967 -7.265079 -123.520064 -6.597284 3.289250 -0.535757 -2.928747 1.477186 -0.038504 -2.928747 1.477187 -0.038506 -2.196345 1.108105 -0.021795 -1.012447 -21.446412 -12.062452 -5.169949 -4.625286 -22.130088 -5.979409 15.781258 -7.697632 24.721526 18.003339 55.685255 -17.942704 -13.937383 11.837404 26.508970 -21.856947 -26.749818 -6.450648 -17.578986 -17.262803 -49.624535 -20.932739 -69.430423 -7.823870 -21.597413 -44.189470 -38.660756 -28.109913 36.102310 3.897185 -9.035741 1.537776 -0.720811 -5.340921 2.820339 2.864601 4.684949 6.107485 -0.099573 -0.119257 -0.018912 3.076792 -14.594081 5.533695 0.558374 -1.038566 4.845387 -0.746732 6.543084 4.165239 0.123933 0.168935 0.000687 
10.174095 3.302680 83.180275 -6.258238 -7.249068 -123.483728 -6.714657 3.363046 -0.427686 -2.983224 1.507800 0.009599 -2.983226 1.507802 0.009597 -2.237313 1.130838 0.014564 -1.072202 -21.777232 -11.312742 -5.031880 -5.138999 -20.760579 -5.978851 15.686202 -7.852140 24.477757 17.883894 55.597702 -18.603186 -14.381317 12.825063 26.037088 -22.240650 -26.590941 -6.377526 -17.821575 -17.202513 -49.718163 -20.777401 -69.393055 -7.098724 -22.979010 -45.323667 -38.472256 -29.165222 36.738826 3.905299 -9.029856 1.545675 -0.715469 -5.291669 2.777705 2.869794 4.629164 6.129470 -0.096813 -0.111838 -0.020430 3.096717 -14.580541 5.532951 0.569686 -0.966601 4.904544 -0.833984 6.472713 4.059873 0.140413 0.171187 0.003151 
10.137958 3.293916 83.183464 -6.249205 -7.236277 -123.452145 -6.841234 3.423390 -0.318054 -3.040111 1.533829 0.059152 -3.040108 1.533827 0.059150 -2.280094 1.150110 0.051995 -1.113338 -22.107576 -10.529088 -4.855991 -5.650152 -19.328032 -5.975391 15.560894 -8.024500 24.273355 17.784008 55.507400 -19.344300 -14.796230 13.827693 25.391269 -22.743538 -26.283126 -6.339930 -17.970395 -17.148344 -49.802123 -20.661915 -69.282440 -6.498010 -24.212227 -46.357699 -38.203512 -30.151880 37.318825 3.927275 -9.034009 1.525025 -0.721442 -5.222232 2.748738 2.876140 4.565494 6.135249 -0.095627 -0.107223 -0.023017 3.120844 -14.570440 5.551988 0.580664 -0.893348 4.944178 -0.918413 6.403108 4.007842 0.151310 0.173532 0.005200 
10.104247 3.281771 83.186378 -6.247433 -7.228718 -123.415344 -6.965804 3.464044 -0.219996 -3.095845 1.551248 0.103255 -3.095844 1.551247 0.103252 -2.322004 1.162950 0.085298 -1.157521 -22.430008 -9.696920 -4.678648 -6.148024 -17.812795 -5.954959 15.517913 -8.163222 24.069281 17.655204 55.379065 -20.182818 -15.308462 14.857128 24.778053 -23.309609 -25.969086 -6.339400 -18.036390 -17.096833 -49.916214 -20.559662 -69.099467 -5.978463 -25.370500 -47.309476 -37.811196 -31.217977 37.835925 3.944109 -9.060637 1.482664 -0.725537 -5.132009 2.727749 2.884477 4.495798 6.162711 -0.093655 -0.104548 -0.024671 3.143331 -14.571193 5.579057 0.593461 -0.818572 4.941799 -0.988374 6.336141 3.945351 0.152322 0.173798 0.006607 
10.074859 3.270724 83.188774 -6.248441 -7.227452 -123.378871 -7.082894 3.476474 -0.116142 -3.147102 1.555787 0.150053 -3.147104 1.555789 0.150055 -2.360562 1.166106 0.120554 -1.210404 -22.731389 -8.824633 -4.513747 -6.611116 -16.232431 -5.941030 15.540326 -8.318565 23.889589 17.517962 55.229405 -21.042628 -15.805881 15.943393 24.287186 -23.821504 -25.768613 -6.338989 -18.022615 -17.071276 -50.064457 -20.448478 -68.871331 -5.399475 -26.562006 -48.330268 -37.471985 -32.375363 38.353011 3.965113 -9.102782 1.431666 -0.727353 -5.024533 2.702722 2.889379 4.421372 6.190650 -0.091178 -0.104838 -0.026347 3.162254 -14.580511 5.596243 0.614485 -0.742374 4.903389 -1.041351 6.272764 3.936262 0.142418 0.171698 0.006594 
10.045124 3.258690 83.189972 -6.244759 -7.226976 -123.356372 -7.184329 3.474489 -0.035696 -3.191851 1.554296 0.186162 -3.191847 1.554293 0.186161 -2.394215 1.164787 0.147737 -1.297213 -23.002803 -7.880058 -4.398946 -7.023450 -14.535863 -5.911785 15.624276 -8.418195 23.691525 17.375385 55.041790 -21.865599 -16.175005 17.110807 23.853783 -24.264496 -25.639994 -6.316141 -18.011888 -16.975074 -50.211825 -20.289765 -68.675380 -4.629345 -27.828277 -49.535950 -37.170040 -33.464710 38.870385 3.983989 -9.140166 1.401666 -0.730770 -4.920603 2.672781 2.894129 4.349471 6.251817 -0.084869 -0.106832 -0.026083 3.180397 -14.583989 5.599178 0.633672 -0.677259 4.865730 -1.078548 6.219676 3.947824 0.125518 0.166885 0.005507 
10.017454 3.253149 83.190796 -6.232489 -7.222217 -123.339884 -7.281574 3.498586 0.051597 -3.234114 1.563927 0.225293 -3.234115 1.563924 0.225292 -2.426013 1.171792 0.177248 -1.401766 -23.270202 -6.900850 -4.311490 -7.435039 -12.784522 -5.893297 15.623334 -8.569190 23.498509 17.264642 54.858146 -22.608580 -16.395519 18.325872 23.325270 -24.716052 -25.518056 -6.233403 -18.108486 -16.874705 -50.318840 -20.115786 -68.573959 -3.730463 -29.000891 -50.828803 -36.865546 -34.348099 39.399803 4.002175 -9.160279 1.380419 -0.724656 -4.828305 2.645029 2.887569 4.285926 6.257380 -0.077596 -0.111301 -0.028114 3.195565 -14.571894 5.584261 0.649146 -0.624752 4.853976 -1.104032 6.175134 3.958181 0.107346 0.159983 0.004715 
9.988270 3.249869 83.191978 -6.214081 -7.215005 -123.331469 -7.365034 3.522502 0.153977 -3.271349 1.573039 0.271221 -3.271347 1.573040 0.271220 -2.454057 1.178370 0.211831 -1.520681 -23.514472 -5.922867 -4.256176 -7.813254 -11.042945 -5.901703 15.536426 -8.747122 23.312803 17.212268 54.674643 -23.389119 -16.578703 19.569580 22.624074 -25.318306 -25.335294 -6.178111 -18.182073 -16.807246 -50.391370 -19.984439 -68.484442 -2.920439 -30.036016 -52.029031 -36.439513 -35.211377 39.757097 4.015117 -9.173035 1.388541 -0.719991 -4.734942 2.602342 2.882093 4.219138 6.280866 -0.066278 -0.114315 -0.027447 3.214453 -14.543042 5.552964 0.655108 -0.594642 4.860514 -1.121410 6.142565 3.988978 0.090788 0.152809 0.003999 
9.959189 3.249898 83.193863 -6.197839 -7.203743 -123.321948 -7.445278 3.549928 0.260980 -3.307369 1.583477 0.319644 -3.307372 1.583479 0.319649 -2.481197 1.185921 0.248299 -1.637209 -23.746491 -4.959980 -4.205037 -8.177040 -9.330674 -5.899601 15.443293 -8.879954 23.122873 17.197971 54.458498 -24.263666 -16.904484 20.805612 21.773852 -26.026263 -25.055220 -6.197184 -18.135612 -16.750573 -50.472335 -19.927871 -68.303545 -2.353841 -30.945617 -53.042669 -35.865228 -36.184918 39.936092 4.026706 -9.179448 1.417680 -0.714302 -4.651374 2.546166 2.869796 4.155436 6.297425 -0.054221 -0.115876 -0.026729 3.229517 -14.509998 5.512597 0.655893 -0.568683 4.868568 -1.134524 6.106811 4.020151 0.078323 0.149843 0.003542 
9.931858 3.248260 83.196869 -6.192615 -7.194908 -123.307318 -7.526045 3.579537 0.367383 -3.345011 1.594979 0.367377 -3.345009 1.594976 0.367376 -2.509556 1.194269 0.284259 -1.738380 -23.972190 -4.009001 -4.133455 -8.535754 -7.638229 -5.882228 15.357008 -9.005871 22.973206 17.185388 54.255365 -25.184530 -17.297555 21.976538 20.970844 -26.702339 -24.778878 -6.242771 -18.072037 -16.693027 -50.521304 -19.872171 -68.097655 -1.897890 -31.786075 -53.996402 -35.373673 -37.127016 40.078112 4.038959 -9.197571 1.458808 -0.711758 -4.568294 2.474593 2.855828 4.092334 6.266316 -0.043079 -0.114511 -0.025842 3.240844 -14.490205 5.496185 0.659471 -0.538665 4.875706 -1.162167 6.064461 3.981134 0.075720 0.152748 0.004121 
